<!-- https://www.svgrepo.com/svg/472607/file-check
Copyright © jtblabs

Permission is hereby granted, free of charge, to any person obtaining a copy of this software and associated documentation files (the “Software”), to deal in the Software without restriction, including without limitation the rights to use, copy, modify, merge, publish, distribute, sublicense, and/or sell copies of the Software, and to permit persons to whom the Software is furnished to do so, subject to the following conditions:

The above copyright notice and this permission notice shall be included in all copies or substantial portions of the Software.

THE SOFTWARE IS PROVIDED “AS IS”, WITHOUT WARRANTY OF ANY KIND, EXPRESS OR IMPLIED, INCLUDING BUT NOT LIMITED TO THE WARRANTIES OF MERCHANTABILITY, FITNESS FOR A PARTICULAR PURPOSE AND NONINFRINGEMENT. IN NO EVENT SHALL THE AUTHORS OR COPYRIGHT HOLDERS BE LIABLE FOR ANY CLAIM, DAMAGES OR OTHER LIABILITY, WHETHER IN AN ACTION OF CONTRACT, TORT OR OTHERWISE, ARISING FROM, OUT OF OR IN CONNECTION WITH THE SOFTWARE OR THE USE OR OTHER DEALINGS IN THE SOFTWARE.
-->
<svg width="170" height="201" viewBox="0 0 170 201" fill="none" xmlns="http://www.w3.org/2000/svg">
<g clip-path="url(#clip0_70_317)">
<path d="M169.744 59.6627C169.684 59.274 169.608 58.9314 169.503 58.5955L169.518 58.6482C169.125 57.1857 168.324 55.9209 167.228 54.9063L167.236 54.9129L106.786 2.21115C105.615 1.24934 104.157 0.551045 102.532 0.221659L102.472 0.208484C102.162 0.129431 101.777 0.0635535 101.391 0.0174395L101.346 0.0108518C100.998 -0.0747886 100.583 -0.147254 100.152 -0.199955L100.107 -0.206543H9.43252C4.21876 -0.206543 -0.0126953 3.48258 -0.0126953 8.02811V192.484C-0.0126953 197.03 4.21876 200.719 9.43252 200.719H160.556C165.77 200.712 169.994 197.03 170.001 192.484V60.7299C169.941 60.3214 169.858 59.9591 169.744 59.6034L169.759 59.6627H169.744ZM137.736 52.4952H109.537V27.9099L137.736 52.4952ZM18.8626 184.25V16.2628H90.6463V60.7299C90.6463 65.2754 94.8777 68.9645 100.091 68.9645H151.096V184.25H18.8626Z" fill="white"/>
<path d="M81.0635 112.536H68.6345C68.4688 111.26 68.1291 110.108 67.6153 109.08C67.1016 108.053 66.4221 107.175 65.577 106.445C64.7318 105.716 63.7292 105.161 62.5692 104.78C61.4257 104.382 60.1579 104.183 58.7659 104.183C56.2967 104.183 54.1672 104.788 52.3774 105.998C50.6042 107.208 49.237 108.956 48.2758 111.243C47.3312 113.53 46.8589 116.297 46.8589 119.546C46.8589 122.926 47.3395 125.76 48.3007 128.047C49.2784 130.317 50.6456 132.033 52.4023 133.193C54.1755 134.336 56.2718 134.908 58.6913 134.908C60.0502 134.908 61.2848 134.734 62.3952 134.386C63.522 134.038 64.5081 133.532 65.3533 132.869C66.215 132.19 66.9193 131.37 67.4662 130.409C68.0296 129.431 68.4191 128.329 68.6345 127.102L81.0635 127.177C80.848 129.431 80.1935 131.651 79.0997 133.839C78.0225 136.026 76.5393 138.023 74.6501 139.83C72.7609 141.619 70.4574 143.045 67.7396 144.105C65.0384 145.166 61.9394 145.696 58.4427 145.696C53.8357 145.696 49.7093 144.685 46.0635 142.663C42.4342 140.625 39.5673 137.659 37.4626 133.764C35.358 129.87 34.3057 125.13 34.3057 119.546C34.3057 113.944 35.3746 109.196 37.5123 105.302C39.6501 101.408 42.5419 98.4495 46.1878 96.4277C49.8336 94.4059 53.9186 93.395 58.4427 93.395C61.5251 93.395 64.3755 93.8259 66.9939 94.6876C69.6122 95.5328 71.9157 96.7757 73.9044 98.4163C75.893 100.04 77.5088 102.037 78.7517 104.407C79.9946 106.777 80.7652 109.486 81.0635 112.536Z" fill="white"/>
<path d="M99.6634 94.091L111.048 131.378H111.471L122.856 94.091H136.627L119.45 145H103.069L85.8921 94.091H99.6634Z" fill="white"/>
</g>
<defs>
<clipPath id="clip0_70_317">
<rect width="170" height="201" fill="white"/>
</clipPath>
</defs>
</svg>
