<svg width="171" height="202" viewBox="0 0 171 202" fill="none" xmlns="http://www.w3.org/2000/svg">
<path d="M170.744 60.6627C170.684 60.274 170.608 59.9314 170.503 59.5955L170.518 59.6482C170.125 58.1857 169.324 56.9209 168.228 55.9063L168.236 55.9129L107.786 3.21115C106.615 2.24934 105.157 1.55105 103.532 1.22166L103.472 1.20848C103.162 1.12943 102.777 1.06355 102.391 1.01744L102.346 1.01085C101.998 0.925211 101.583 0.852746 101.152 0.800045L101.107 0.793457H10.4325C5.21876 0.793457 0.987305 4.48258 0.987305 9.02811V193.484C0.987305 198.03 5.21876 201.719 10.4325 201.719H161.556C166.77 201.712 170.994 198.03 171.001 193.484V61.7299C170.941 61.3214 170.858 60.9591 170.744 60.6034L170.759 60.6627H170.744ZM138.736 53.4952H110.537V28.9099L138.736 53.4952ZM19.8626 185.25V17.2628H91.6463V61.7299C91.6463 66.2754 95.8777 69.9645 101.091 69.9645H152.096V185.25H19.8626Z" fill="white"/>
<path d="M82.0635 113.536H69.6345C69.4688 112.26 69.1291 111.108 68.6153 110.08C68.1016 109.053 67.4221 108.175 66.577 107.445C65.7318 106.716 64.7292 106.161 63.5692 105.78C62.4257 105.382 61.1579 105.183 59.7659 105.183C57.2967 105.183 55.1672 105.788 53.3774 106.998C51.6042 108.208 50.237 109.956 49.2758 112.243C48.3312 114.53 47.8589 117.297 47.8589 120.546C47.8589 123.926 48.3395 126.76 49.3007 129.047C50.2784 131.317 51.6456 133.033 53.4023 134.193C55.1755 135.336 57.2718 135.908 59.6913 135.908C61.0502 135.908 62.2848 135.734 63.3952 135.386C64.522 135.038 65.5081 134.532 66.3533 133.869C67.215 133.19 67.9193 132.37 68.4662 131.409C69.0296 130.431 69.4191 129.329 69.6345 128.102L82.0635 128.177C81.848 130.431 81.1935 132.651 80.0997 134.839C79.0225 137.026 77.5393 139.023 75.6501 140.83C73.7609 142.619 71.4574 144.045 68.7396 145.105C66.0384 146.166 62.9394 146.696 59.4427 146.696C54.8357 146.696 50.7093 145.685 47.0635 143.663C43.4342 141.625 40.5673 138.659 38.4626 134.764C36.358 130.87 35.3057 126.13 35.3057 120.546C35.3057 114.944 36.3746 110.196 38.5123 106.302C40.6501 102.408 43.5419 99.4495 47.1878 97.4277C50.8336 95.4059 54.9186 94.395 59.4427 94.395C62.5251 94.395 65.3755 94.8259 67.9939 95.6876C70.6122 96.5328 72.9157 97.7757 74.9044 99.4163C76.893 101.04 78.5088 103.037 79.7517 105.407C80.9946 107.777 81.7652 110.486 82.0635 113.536Z" fill="white"/>
<path d="M100.663 95.091L112.048 132.378H112.471L123.856 95.091H137.627L120.45 146H104.069L86.8921 95.091H100.663Z" fill="white"/>
</svg>
