<svg width="170" height="201" viewBox="0 0 170 201" fill="none" xmlns="http://www.w3.org/2000/svg">
<g clip-path="url(#clip0_2024_156)">
<path d="M169.744 59.6622C169.684 59.2735 169.608 58.9309 169.503 58.595L169.518 58.6477C169.125 57.1852 168.324 55.9204 167.228 54.9059L167.236 54.9124L106.786 2.21066C105.615 1.24886 104.157 0.550557 102.532 0.221171L102.472 0.207995C102.162 0.128943 101.777 0.0630652 101.391 0.0169512L101.346 0.0103635C100.998 -0.0752769 100.583 -0.147742 100.152 -0.200444L100.107 -0.207031H9.43252C4.21876 -0.207031 -0.0126953 3.48209 -0.0126953 8.02762V192.484C-0.0126953 197.029 4.21876 200.718 9.43252 200.718H160.556C165.77 200.712 169.994 197.029 170.001 192.484V60.7294C169.941 60.321 169.858 59.9586 169.744 59.6029L169.759 59.6622H169.744ZM137.736 52.4947H109.537V27.9094L137.736 52.4947ZM18.8626 184.249V16.2623H90.6463V60.7294C90.6463 65.2749 94.8777 68.9641 100.091 68.9641H151.096V184.249H18.8626Z" fill="white"/>
<path d="M100 62H160V195.5H10V10.5H100V62ZM58.4424 93.3945C53.9184 93.3946 49.8332 94.405 46.1875 96.4268C42.5417 98.4485 39.6505 101.407 37.5127 105.302C35.375 109.196 34.3057 113.944 34.3057 119.545C34.3057 125.13 35.3583 129.869 37.4629 133.764C39.5675 137.658 42.4342 140.625 46.0635 142.663C49.7092 144.685 53.8355 145.695 58.4424 145.695C61.939 145.695 65.0381 145.165 67.7393 144.104C70.4571 143.044 72.7612 141.619 74.6504 139.829C76.5394 138.023 78.0225 136.026 79.0996 133.839C80.1933 131.651 80.848 129.43 81.0635 127.177L68.6348 127.102C68.4193 128.328 68.0293 129.43 67.4658 130.408C66.919 131.369 66.2151 132.19 65.3535 132.869C64.5084 133.532 63.5223 134.038 62.3955 134.386C61.2852 134.734 60.0503 134.907 58.6914 134.907C56.272 134.907 54.1755 134.336 52.4023 133.192C50.6458 132.032 49.2785 130.317 48.3008 128.047C47.3396 125.76 46.8594 122.926 46.8594 119.545C46.8594 116.297 47.3308 113.529 48.2754 111.242C49.2365 108.955 50.6038 107.207 52.377 105.997C54.1667 104.787 56.2965 104.183 58.7656 104.183C60.1577 104.183 61.4259 104.382 62.5693 104.779C63.7293 105.16 64.732 105.716 65.5771 106.445C66.4222 107.174 67.1016 108.053 67.6152 109.08C68.1289 110.108 68.4691 111.259 68.6348 112.535H81.0635C80.7652 109.486 79.9948 106.776 78.752 104.406C77.5091 102.037 75.8929 100.04 73.9043 98.416C71.9157 96.7755 69.6124 95.5327 66.9941 94.6875C64.3758 93.8258 61.5248 93.3945 58.4424 93.3945ZM85.8926 94.0908L103.069 145H119.45L136.627 94.0908H122.855L111.471 131.378H111.049L99.6631 94.0908H85.8926Z" fill="white"/>
</g>
<defs>
<clipPath id="clip0_2024_156">
<rect width="170" height="201" fill="white"/>
</clipPath>
</defs>
</svg>
