<?xml version="1.0" encoding="UTF-8"?>
<svg id="Layer_1" data-name="Layer 1" xmlns="http://www.w3.org/2000/svg" viewBox="0 0 296.27 195.88">
  <defs>
    <style>
      .cls-1 {
        fill: #fff;
      }
    </style>
  </defs>
  <path class="cls-1" d="M280.92,0H15.35C6.87,0,0,6.87,0,15.35v165.18c0,8.48,6.87,15.35,15.35,15.35h265.57c8.48,0,15.35-6.87,15.35-15.35V15.35c0-8.48-6.87-15.35-15.35-15.35ZM214.11,95.76l61.95-62.69c.11.76.19,1.53.19,2.31v124.48l-62.14-64.1ZM19.5,161.45c-.02-.31-.05-.62-.05-.93V35.38c0-.99.1-1.96.28-2.9l63.74,64.55-63.98,64.42ZM35.26,20.03h225.05l-109.06,110.28c-2.04,1.6-4.02,1.75-5.93.09L35.26,20.03ZM34.8,175.87c-.51,0-1-.03-1.5-.08l64.25-64.51,30.08,30.46c12.39,12.53,25.93,13.82,41.04,0l31.62-32,63.39,65.86c-.9.16-1.83.26-2.77.26H34.8Z"/>
</svg>