<svg width="272" height="202" viewBox="0 0 272 202" fill="none" xmlns="http://www.w3.org/2000/svg">
<path d="M257.907 22H14.0926C6.30722 22 0 28.313 0 36.1056V187.894C0 195.687 6.30722 202 14.0926 202H257.907C265.693 202 272 195.687 272 187.894V36.1056C272 28.313 265.693 22 257.907 22ZM196.57 109.997L253.446 52.389C253.547 53.0874 253.62 53.795 253.62 54.5117V168.9L196.57 109.997ZM17.9026 170.361C17.8842 170.076 17.8567 169.792 17.8567 169.507V54.5117C17.8567 53.602 17.9485 52.7106 18.1137 51.8468L76.6323 111.164L17.8934 170.361H17.9026ZM32.3716 40.4062H238.986L138.86 141.746C136.987 143.216 135.169 143.354 133.416 141.828L32.3716 40.4062ZM31.9492 183.612C31.481 183.612 31.0312 183.585 30.5721 183.539L89.5589 124.259L117.175 152.249C128.55 163.763 140.981 164.949 154.853 152.249L183.883 122.843L242.08 183.364C241.253 183.511 240.4 183.603 239.537 183.603H31.9492V183.612Z" fill="white"/>
</svg>
