<svg width="235" height="142" viewBox="0 0 235 142" fill="none" xmlns="http://www.w3.org/2000/svg">
<g clip-path="url(#clip0_2024_169)">
<path d="M-13.6309 157.105C-13.4677 157.261 -13.3014 157.414 -13.1309 157.562C-13.3014 157.414 -13.4677 157.261 -13.6309 157.105ZM249.631 157.105C249.468 157.261 249.301 157.414 249.131 157.562C249.301 157.414 249.468 157.261 249.631 157.105ZM224.08 142.364C223.254 142.511 222.4 142.603 221.537 142.603H13.9492V142.612C13.4811 142.612 13.0312 142.585 12.5723 142.539L71.5586 83.2588L99.1748 111.249C110.55 122.763 122.98 123.949 136.853 111.249L165.883 81.8438L224.08 142.364ZM58.6318 70.1641L-0.0986328 129.353C-0.116984 129.071 -0.143542 128.789 -0.143555 128.507V13.5117C-0.143553 12.602 -0.051972 11.7105 0.113281 10.8467L58.6318 70.1641ZM235.445 11.3887C235.546 12.0871 235.62 12.795 235.62 13.5117V127.9L178.57 68.9971L235.445 11.3887ZM120.859 100.746C118.987 102.216 117.169 102.353 115.416 100.828L14.3711 -0.59375H220.985L120.859 100.746ZM-14.9951 -13.6045V-13.6035V-13.6045ZM250.995 -13.6035V-13.6045V-13.6035ZM-13.1309 -15.5615C-13.3014 -15.4137 -13.4677 -15.2612 -13.6309 -15.1055C-13.5492 -15.1834 -13.4673 -15.261 -13.3838 -15.3369L-13.1309 -15.5615ZM249.131 -15.5615C249.301 -15.4137 249.468 -15.2612 249.631 -15.1055C249.549 -15.1832 249.467 -15.2601 249.384 -15.3359L249.131 -15.5615Z" fill="white"/>
<g clip-path="url(#clip1_2024_169)">
<path d="M222.824 -13.7568C229.55 -13.7568 235 -8.30275 235 -1.57031V129.571C235 136.304 229.55 141.758 222.824 141.758H12.1758C5.44959 141.758 0.000177135 136.304 0 129.571V-1.57031C8.84721e-05 -8.30275 5.44954 -13.7568 12.1758 -13.7568H222.824ZM133.788 98.7744C121.803 109.746 111.063 108.722 101.235 98.7744L77.376 74.5918L26.4131 125.808C26.8097 125.847 27.199 125.871 27.6035 125.871V125.863H206.952C207.698 125.863 208.436 125.784 209.149 125.657L158.869 73.3691L133.788 98.7744ZM15.6494 12.0303C15.5067 12.7764 15.4277 13.5463 15.4277 14.332V113.685C15.4277 113.928 15.4509 114.171 15.4668 114.414L66.208 63.2783L15.6494 12.0303ZM169.831 62.2695L219.12 113.16V14.332C219.12 13.7128 219.057 13.1014 218.97 12.498L169.831 62.2695ZM27.9678 2.14551L115.268 89.7715C116.782 91.0891 118.353 90.9702 119.971 89.7002L206.477 2.14551H27.9678Z" fill="white"/>
</g>
<path d="M4 123.5L58.5 70L101.5 113.5C110.423 132.154 117.014 134.069 133 114.5L189 58.5L232.5 123L111.5 139L4 123.5Z" fill="white"/>
</g>
<defs>
<clipPath id="clip0_2024_169">
<rect width="235" height="142" fill="white"/>
</clipPath>
<clipPath id="clip1_2024_169">
<rect width="235" height="20" fill="white" transform="translate(0 122)"/>
</clipPath>
</defs>
</svg>
