<svg width="235" height="142" viewBox="0 0 235 142" fill="none" xmlns="http://www.w3.org/2000/svg">
<g clip-path="url(#clip0_2024_169)">
<path d="M-13.6309 157.105C-13.4677 157.261 -13.3014 157.414 -13.1309 157.562C-13.3014 157.414 -13.4677 157.261 -13.6309 157.105ZM249.631 157.105C249.468 157.261 249.301 157.414 249.131 157.562C249.301 157.414 249.468 157.261 249.631 157.105ZM224.08 142.364C223.254 142.511 222.4 142.603 221.537 142.603H13.9492V142.612C13.4811 142.612 13.0312 142.585 12.5723 142.539L71.5586 83.2588L99.1748 111.249C110.55 122.763 122.98 123.949 136.853 111.249L165.883 81.8438L224.08 142.364ZM58.6318 70.1641L-0.0986328 129.353C-0.116984 129.071 -0.143542 128.789 -0.143555 128.507V13.5117C-0.143553 12.602 -0.051972 11.7105 0.113281 10.8467L58.6318 70.1641ZM235.445 11.3887C235.546 12.0871 235.62 12.795 235.62 13.5117V127.9L178.57 68.9971L235.445 11.3887ZM120.859 100.746C118.987 102.216 117.169 102.353 115.416 100.828L14.3711 -0.59375H220.985L120.859 100.746ZM-14.9951 -13.6045V-13.6035V-13.6045ZM250.995 -13.6035V-13.6045V-13.6035ZM-13.1309 -15.5615C-13.3014 -15.4137 -13.4677 -15.2612 -13.6309 -15.1055C-13.5492 -15.1834 -13.4673 -15.261 -13.3838 -15.3369L-13.1309 -15.5615ZM249.131 -15.5615C249.301 -15.4137 249.468 -15.2612 249.631 -15.1055C249.549 -15.1832 249.467 -15.2601 249.384 -15.3359L249.131 -15.5615Z" fill="white"/>
</g>
<defs>
<clipPath id="clip0_2024_169">
<rect width="235" height="142" fill="white"/>
</clipPath>
</defs>
</svg>
