<svg width="27" height="37" viewBox="0 0 27 37" fill="none" xmlns="http://www.w3.org/2000/svg">
<path fill-rule="evenodd" clip-rule="evenodd" d="M3.14796 12.7056C1.25285 11.4726 0 9.33794 0 6.91105C0 3.09419 3.09899 0 6.92176 0H18.781C22.6038 0 25.7028 3.09419 25.7028 6.91105C25.7028 9.33794 24.45 11.4726 22.5548 12.7056C24.45 13.9385 25.7028 16.0732 25.7028 18.5001C25.7028 22.3169 22.6038 25.4111 18.781 25.4111H18.6548C16.8478 25.4111 15.2024 24.7197 13.9697 23.5874V30.0259C13.9697 33.8855 10.8029 37 6.95314 37C3.1382 37 0 33.9136 0 30.089C0 27.6621 1.25279 25.5275 3.14784 24.2945C1.25279 23.0615 0 20.9269 0 18.5001C0 16.0732 1.25285 13.9385 3.14796 12.7056ZM13.9697 18.5001C13.9697 21.0836 16.0673 23.1779 18.6548 23.1779H18.781C21.3685 23.1779 23.4661 21.0836 23.4661 18.5001C23.4661 15.9165 21.3685 13.8222 18.781 13.8222H18.6548C16.0673 13.8222 13.9697 15.9165 13.9697 18.5001ZM11.733 13.8222H6.92176C4.33423 13.8222 2.23666 15.9165 2.23666 18.5001C2.23666 21.0783 4.32577 23.1694 6.90601 23.1779H6.91336H11.733V13.8222ZM6.92176 25.4111C6.91651 25.4111 6.91126 25.4111 6.90601 25.4111C4.32577 25.4196 2.23666 27.5107 2.23666 30.089C2.23666 32.6646 4.35776 34.7668 6.95314 34.7668C9.58335 34.7668 11.733 32.6365 11.733 30.0259V25.4111H6.92176ZM11.733 11.5889H6.92176C4.33423 11.5889 2.23666 9.49457 2.23666 6.91105C2.23666 4.32752 4.33423 2.2332 6.92176 2.2332H11.733V11.5889ZM18.781 11.5889H13.9697V2.2332H18.781C21.3685 2.2332 23.4661 4.32752 23.4661 6.91105C23.4661 9.49457 21.3685 11.5889 18.781 11.5889Z" fill="white"/>
</svg>
