<svg width="37" height="37" viewBox="0 0 37 37" fill="none" xmlns="http://www.w3.org/2000/svg">
<g clip-path="url(#clip0_42_38)">
<path fill-rule="evenodd" clip-rule="evenodd" d="M18.4449 0C8.24534 0 0 8.47917 0 18.9691C0 27.3542 5.28307 34.452 12.6121 36.9642C13.5284 37.153 13.8641 36.556 13.8641 36.0538C13.8641 35.614 13.8338 34.1067 13.8338 32.5361C8.70293 33.6669 7.63446 30.2749 7.63446 30.2749C6.80989 28.0764 5.58813 27.5114 5.58813 27.5114C3.90879 26.3494 5.71046 26.3494 5.71046 26.3494C7.5733 26.475 8.55078 28.2965 8.55078 28.2965C10.1995 31.1856 12.8564 30.3693 13.9252 29.8667C14.0777 28.6419 14.5667 27.7939 15.0858 27.323C10.9935 26.8832 6.68794 25.2502 6.68794 17.9639C6.68794 15.8911 7.42039 14.1953 8.58098 12.8764C8.39787 12.4054 7.75641 10.4579 8.76447 7.85132C8.76447 7.85132 10.3219 7.34874 13.8335 9.79845C15.3369 9.38322 16.8874 9.172 18.4449 9.17022C20.0023 9.17022 21.5899 9.39029 23.0559 9.79845C26.5679 7.34874 28.1253 7.85132 28.1253 7.85132C29.1333 10.4579 28.4915 12.4054 28.3084 12.8764C29.4996 14.1953 30.2018 15.8911 30.2018 17.9639C30.2018 25.2502 25.8962 26.8516 21.7734 27.323C22.4454 27.9196 23.0253 29.05 23.0253 30.8403C23.0253 33.384 22.9951 35.4256 22.9951 36.0534C22.9951 36.556 23.3311 37.153 24.2471 36.9645C31.5761 34.4516 36.8592 27.3542 36.8592 18.9691C36.8894 8.47917 28.6138 0 18.4449 0Z" fill="#24292F"/>
</g>
<defs>
<clipPath id="clip0_42_38">
<rect width="37" height="37" fill="white"/>
</clipPath>
</defs>
</svg>
