<!-- https://www.svgrepo.com/svg/445856/linkedin 
Copyright © Denali Design

Permission is hereby granted, free of charge, to any person obtaining a copy of this software and associated documentation files (the “Software”), to deal in the Software without restriction, including without limitation the rights to use, copy, modify, merge, publish, distribute, sublicense, and/or sell copies of the Software, and to permit persons to whom the Software is furnished to do so, subject to the following conditions:

The above copyright notice and this permission notice shall be included in all copies or substantial portions of the Software.

THE SOFTWARE IS PROVIDED “AS IS”, WITHOUT WARRANTY OF ANY KIND, EXPRESS OR IMPLIED, INCLUDING BUT NOT LIMITED TO THE WARRANTIES OF MERCHANTABILITY, FITNESS FOR A PARTICULAR PURPOSE AND NONINFRINGEMENT. IN NO EVENT SHALL THE AUTHORS OR COPYRIGHT HOLDERS BE LIABLE FOR ANY CLAIM, DAMAGES OR OTHER LIABILITY, WHETHER IN AN ACTION OF CONTRACT, TORT OR OTHERWISE, ARISING FROM, OUT OF OR IN CONNECTION WITH THE SOFTWARE OR THE USE OR OTHER DEALINGS IN THE SOFTWARE.
-->
<svg width="190" height="201" viewBox="0 0 190 201" fill="none" xmlns="http://www.w3.org/2000/svg">
<path d="M176.175 11.0082H14.2845C12.4315 10.9443 10.5846 11.2542 8.85391 11.9194C7.12328 12.5847 5.54432 13.5917 4.21123 14.8803C2.87815 16.1689 1.81825 17.7129 1.09473 19.42C0.37121 21.1271 -0.00110022 22.9625 2.44214e-06 24.8165V187.184C-0.00110022 189.037 0.37121 190.873 1.09473 192.58C1.81825 194.287 2.87815 195.831 4.21123 197.12C5.54432 198.408 7.12328 199.415 8.85391 200.081C10.5846 200.746 12.4315 201.056 14.2845 200.992H176.175C179.837 200.992 183.35 199.537 185.939 196.948C188.529 194.358 189.984 190.846 189.984 187.184V24.8165C189.984 21.1543 188.529 17.6421 185.939 15.0526C183.35 12.463 179.837 11.0082 176.175 11.0082ZM56.6619 172.899H28.0928V82.4307H56.6619V172.899ZM42.3773 70.0509C38.0404 69.9265 33.9229 68.1164 30.8998 65.0042C27.8767 61.8925 26.1864 57.7242 26.1882 53.3855C26.1882 49.0919 27.8939 44.9741 30.9299 41.9381C33.9659 38.9021 38.0837 37.1964 42.3773 37.1964C46.6711 37.1964 50.7887 38.9021 53.8245 41.9381C56.8608 44.9741 58.5666 49.0919 58.5666 53.3855C58.568 57.7242 56.878 61.8925 53.8548 65.0042C50.8315 68.1164 46.7139 69.9265 42.3773 70.0509ZM161.891 172.899H133.798V128.617C133.798 118.142 133.798 104.81 119.037 104.81C104.276 104.81 102.372 116.237 102.372 128.141V172.899H74.2793V82.4307H100.944V94.8105H101.42C104.101 90.1574 108.001 86.3243 112.7 83.723C117.399 81.1221 122.718 79.8522 128.084 80.0496C156.653 80.0496 161.891 98.6198 161.891 123.379V172.899Z" fill="white"/>
</svg>
