<svg width="408" height="408" viewBox="0 0 408 408" fill="none" xmlns="http://www.w3.org/2000/svg">
<path d="M378.313 0.0176352H30.674C26.695 -0.119657 22.729 0.545812 19.0126 1.97435C15.2963 3.40289 11.9057 5.56524 9.04307 8.33244C6.18045 11.0996 3.90445 14.415 2.35078 18.0808C0.797124 21.7466 -0.00236258 25.6878 5.24417e-06 29.6692V378.331C-0.00236258 382.312 0.797124 386.253 2.35078 389.919C3.90445 393.585 6.18045 396.9 9.04307 399.668C11.9057 402.435 15.2963 404.597 19.0126 406.026C22.729 407.454 26.695 408.12 30.674 407.982H378.313C386.177 407.982 393.719 404.858 399.28 399.298C404.841 393.737 407.965 386.195 407.965 378.331V29.6692C407.965 21.8051 404.841 14.2631 399.28 8.70238C393.719 3.14163 386.177 0.0176352 378.313 0.0176352ZM121.674 347.657H60.3256V153.388H121.674V347.657ZM90.9997 126.804C81.6868 126.537 72.845 122.65 66.3533 115.967C59.8616 109.285 56.2319 100.334 56.2357 91.0173C56.2357 81.7973 59.8984 72.955 66.4179 66.4355C72.9374 59.916 81.7797 56.2534 90.9997 56.2534C100.22 56.2534 109.062 59.916 115.581 66.4355C122.101 72.955 125.764 81.7973 125.764 91.0173C125.767 100.334 122.138 109.285 115.646 115.967C109.154 122.65 100.312 126.537 90.9997 126.804ZM347.639 347.657H287.313V252.567C287.313 230.073 287.314 201.444 255.617 201.444C223.92 201.444 219.831 225.983 219.831 251.545V347.657H159.505V153.388H216.763V179.972H217.786C223.544 169.98 231.919 161.749 242.008 156.163C252.098 150.578 263.52 147.851 275.044 148.275C336.392 148.275 347.639 188.152 347.639 241.32V347.657Z" fill="white"/>
</svg>
