<svg width="30" height="50" viewBox="0 0 30 50" fill="none" xmlns="http://www.w3.org/2000/svg">
<g id="Group 154">
<rect id="wheel" x="12.5" y="8.74994" width="4.375" height="11.25" rx="2.1875" fill="white"/>
<path id="Subtract" fill-rule="evenodd" clip-rule="evenodd" d="M14.6875 0C6.57582 0 0 6.57582 0 14.6875V35.3125C0 43.4242 6.57582 50 14.6875 50C22.7992 50 29.375 43.4242 29.375 35.3125V14.6875C29.375 6.57582 22.7992 0 14.6875 0ZM14.6875 4.0625C8.64689 4.0625 3.75001 8.95938 3.75001 15V35C3.75001 41.0406 8.64689 45.9375 14.6875 45.9375C20.7281 45.9375 25.625 41.0406 25.625 35V15C25.625 8.95938 20.7281 4.0625 14.6875 4.0625Z" fill="white"/>
</g>
</svg>
