<svg width="37" height="37" viewBox="0 0 37 37" fill="none" xmlns="http://www.w3.org/2000/svg">
<g clip-path="url(#clip0_75_318)">
<path d="M18.5007 34.8136L17.1795 36.1084C17.5273 36.4636 18.0036 36.6636 18.5007 36.6636C18.9978 36.6636 19.474 36.4636 19.822 36.1084L18.5007 34.8136ZM18.5007 2.18643L19.822 0.891611C19.474 0.53654 18.9978 0.336426 18.5007 0.336426C18.0036 0.336426 17.5273 0.53654 17.1793 0.891611L18.5007 2.18643ZM23.3107 18.5001C23.3107 24.348 20.974 29.6464 17.1795 33.5188L19.822 36.1084C24.267 31.5724 27.0107 25.3548 27.0107 18.5001H23.3107ZM17.1793 3.48124C20.974 7.35372 23.3107 12.6522 23.3107 18.5001H27.0107C27.0107 11.6453 24.267 5.42764 19.822 0.891611L17.1793 3.48124ZM13.6907 18.5001C13.6907 12.6522 16.0273 7.35372 19.822 3.48124L17.1793 0.891611C12.7344 5.42764 9.99072 11.6453 9.99072 18.5001H13.6907ZM19.822 33.5188C16.0273 29.6464 13.6907 24.348 13.6907 18.5001H9.99072C9.99072 25.3548 12.7344 31.5724 17.1795 36.1084L19.822 33.5188Z" fill="#24292F"/>
<rect x="3.7002" y="11.1001" width="29.6" height="3.7" fill="#24292F"/>
<rect x="3.7002" y="22.2" width="29.6" height="3.7" fill="#24292F"/>
<path fill-rule="evenodd" clip-rule="evenodd" d="M18.5 37C28.7173 37 37 28.7173 37 18.5C37 8.28273 28.7173 0 18.5 0C8.28273 0 0 8.28273 0 18.5C0 28.7173 8.28273 37 18.5 37ZM18.5 33.3C26.6738 33.3 33.3 26.6738 33.3 18.5C33.3 10.3262 26.6738 3.7 18.5 3.7C10.3262 3.7 3.7 10.3262 3.7 18.5C3.7 26.6738 10.3262 33.3 18.5 33.3Z" fill="#24292F"/>
</g>
<defs>
<clipPath id="clip0_75_318">
<rect width="37" height="37" fill="white"/>
</clipPath>
</defs>
</svg>
